# xmcd
#
# Track frame offsets:
#	150
#	35658
#	60319
#	74810
#	122101
#	138629
#	175707
#
# Disc length: 2653 seconds
#
# Revision: 1
# Processed by: cddbd v1.5.2PL0 Copyright (c) Steve Scherf et al.
# Submitted via: audiograbber 1.83.01
#
DISCID=680a5b07
DTITLE=Grateful Dead - 85-06-30 Merriweather Post Pavilion, Columbia MD
DYEAR=1900
DGENRE=
TTITLE0=Space
TTITLE1=Other One Jam
TTITLE2=The Other One
TTITLE3=Stella Blue
TTITLE4=Around and Around
TTITLE5=Sugar Magnolia
TTITLE6=US Blues
EXTD=
EXTT0=
EXTT1=
EXTT2=
EXTT3=
EXTT4=
EXTT5=
EXTT6=
PLAYORDER=
